<?xml version="1.0" encoding="utf-8"?>
<!-- Generator: Adobe Illustrator 27.2.0, SVG Export Plug-In . SVG Version: 6.00 Build 0)  -->
<svg version="1.1" id="LOGOS" xmlns="http://www.w3.org/2000/svg" xmlns:xlink="http://www.w3.org/1999/xlink" x="0px" y="0px"
	 viewBox="0 0 512 512" style="enable-background:new 0 0 512 512;" xml:space="preserve">
<style type="text/css">
	.st0{fill:#1D428A;}
	.st1{fill:#C8102E;}
</style>
<g>
	<g>
		<g>
			<path class="st0" d="M383.4,302.7c-21.7,0-43.9,8.7-55.6,26.8h-0.4h-0.5h0.5l2.2-31.5c1.3-21.3,6.1-79.1,35.6-79.1
				c14.2,0,11,18.8,12.6,27.3c3.9,20,12.6,43,40,43c18.7,0,38.2-12.4,38.2-37.6c0-39-32.6-64.6-72.1-64.6
				c-101.6,0-142.4,77.5-142.4,171.4c0,81.5,31.7,151.8,118.9,151.8c56.6,0,102.6-40.3,102.6-108
				C462.9,345.2,432.7,302.7,383.4,302.7z M353.3,478.6c-24.3,0-23.2-31.1-23.2-66.9c0-35.9,3.4-66.8,23.2-66.8
				c24.3,0,25.6,31,25.6,66.8C378.9,447.5,373.9,478.6,353.3,478.6z"/>
			<path class="st1" d="M47.9,185.5v121c67.8,10,148.6,3.4,205.8-80.3c2.4-3.6,3.8-1.1,2.3,2c-16,32.5-53.7,62.6-86.4,88.2
				c-31.4,24.6-115.6,113-114.4,190.6c0.1,6,0.3,4.3,5.5,0.4c25.6-19,75.6-19.6,106.3-4.8c4.3,2,4.6,1.4,4.1-4.1
				c-5.9-60.2,7.6-126,33.5-164.1c17.8-26.5,65.6-94.5,73.9-148c0.8-5.5-2-4.7-8.9,2.6c-54.2,57.3-152.2,55.9-215.5-4.8
				C50.1,180.4,48.3,182.1,47.9,185.5"/>
		</g>
	</g>
	<g>
		<g>
			<polygon class="st0" points="165.4,1 169.3,13.4 182.4,13.4 171.7,21.1 175.6,33.2 165.4,25.8 155,33.2 158.9,21 148.3,13.4 
				161.4,13.4 			"/>
			<polygon class="st0" points="242.6,46 246.6,58.3 259.7,58.3 249,66.1 252.9,78.2 242.6,70.7 232.3,78.2 236.3,66.1 225.5,58.3 
				238.7,58.3 			"/>
			<polygon class="st0" points="209.5,11.3 213.4,23.6 226.6,23.6 215.9,31.4 219.8,43.5 209.5,36 199.2,43.5 203.1,31.3 
				192.4,23.6 205.5,23.6 			"/>
			<polygon class="st0" points="255.2,88.6 259.2,100.9 272.3,100.9 261.7,108.6 265.5,120.8 255.3,113.2 245,120.8 248.9,108.6 
				238.2,100.9 251.2,100.9 			"/>
			<polygon class="st0" points="249.7,133.5 253.6,145.8 266.8,145.8 256.1,153.6 260,165.8 249.7,158.3 239.5,165.8 243.3,153.6 
				232.7,145.8 245.8,145.8 			"/>
			<polygon class="st0" points="224.9,169.4 228.7,181.7 241.9,181.7 231.3,189.5 235.1,201.6 224.9,194.1 214.6,201.6 218.5,189.5 
				207.8,181.7 220.9,181.7 			"/>
			<polygon class="st0" points="185.8,189.5 189.8,201.8 202.8,201.8 192.2,209.6 196.2,221.8 185.9,214.3 175.6,221.8 179.4,209.6 
				168.8,201.8 181.9,201.8 			"/>
			<polygon class="st0" points="86.7,42.1 82.8,54.3 69.7,54.3 80.3,62.1 76.4,74.2 86.7,66.7 97,74.2 93.1,62.1 103.8,54.3 
				90.7,54.3 			"/>
			<polygon class="st0" points="119,11.3 115.1,23.6 102,23.6 112.7,31.4 108.7,43.5 119,36 129.4,43.5 125.5,31.3 136.1,23.6 
				123,23.6 			"/>
			<polygon class="st0" points="71.7,83.1 67.8,95.3 54.6,95.3 65.3,103.1 61.4,115.3 71.7,107.8 82,115.3 78.1,103.1 88.8,95.3 
				75.7,95.3 			"/>
			<polygon class="st0" points="75.7,128 71.7,140.3 58.6,140.3 69.3,148.1 65.4,160.2 75.7,152.7 86,160.2 82,148.1 92.7,140.3 
				79.6,140.3 			"/>
			<polygon class="st0" points="100.5,164.7 96.6,177 83.5,177 94.1,184.8 90.2,196.9 100.5,189.4 110.9,196.9 106.9,184.7 
				117.6,177 104.5,177 			"/>
			<polygon class="st0" points="139.5,188 135.6,200.3 122.5,200.3 133.2,208.1 129.3,220.2 139.5,212.8 149.9,220.2 145.9,208 
				156.7,200.3 143.5,200.3 			"/>
		</g>
	</g>
</g>
</svg>
